<?xml version="1.0" encoding="UTF-8"?> <!-- Generator: Adobe Illustrator 24.1.2, SVG Export Plug-In . SVG Version: 6.00 Build 0) --> <svg xmlns="http://www.w3.org/2000/svg" xmlns:xlink="http://www.w3.org/1999/xlink" version="1.1" id="Capa_1" x="0px" y="0px" viewBox="0 0 140 140" style="enable-background:new 0 0 140 140;" xml:space="preserve"> <style type="text/css"> .st0{fill-rule:evenodd;clip-rule:evenodd;fill:#FFFFFF;} .st1{fill:#DA763E;} .st2{fill-rule:evenodd;clip-rule:evenodd;fill:#DA763E;} </style> <g> <path class="st0" d="M70.44,4.66c-36.11,0-65.49,29.38-65.49,65.49s29.38,65.49,65.49,65.49c36.11,0,65.49-29.38,65.49-65.49 S106.55,4.66,70.44,4.66z"></path> <g> <path class="st1" d="M70.44,136.71c-36.7,0-66.56-29.86-66.56-66.56c0-36.7,29.86-66.56,66.56-66.56 c36.7,0,66.56,29.86,66.56,66.56C137,106.85,107.14,136.71,70.44,136.71z M70.44,4.66c-36.11,0-65.49,29.38-65.49,65.49 s29.38,65.49,65.49,65.49c36.11,0,65.49-29.38,65.49-65.49S106.55,4.66,70.44,4.66z"></path> <g> <path class="st1" d="M25.3,103.66c-1.23,1-0.61,2.46-0.16,3.53c0.53,1.24,0.57,1.97,0.11,2.34c-0.64,0.52-1.49,0.26-2.3-0.73 c-0.76-0.93-0.87-1.77-0.3-2.31l0.16-0.15l-0.18-0.12c-0.24-0.17-0.65-0.12-0.9,0.08c-0.38,0.31-0.54,0.76-0.46,1.3 c0.08,0.54,0.4,1.15,0.94,1.81c0.76,0.93,1.58,1.43,2.36,1.43c0.47,0,0.91-0.17,1.32-0.51c1.08-0.88,0.65-2.36,0.15-3.56 c-0.43-1.05-0.68-1.83-0.11-2.3c0.61-0.5,1.32-0.34,1.96,0.44c0.63,0.77,0.66,1.57,0.06,2.14l-0.14,0.13l0.14,0.13 c0.28,0.25,0.64,0.26,0.94,0.01c0.63-0.52,0.82-1.68-0.27-3.02C27.62,103.05,26.33,102.81,25.3,103.66z"></path> <path class="st1" d="M37.37,112.93c-0.41-0.32-0.8-0.18-1.1,0.01l-6.03,3.95c-0.05,0.03-0.21,0.13-0.21,0.3 c-0.01,0.17,0.14,0.28,0.19,0.32l0.11,0.09c0.23,0.18,0.45,0.19,0.69,0.03l2.32-1.56l2.03,1.57l-0.92,2.65 c-0.09,0.27-0.02,0.48,0.2,0.65l0.12,0.09c0.1,0.08,0.19,0.11,0.28,0.11c0.1,0,0.24-0.05,0.33-0.3l2.3-6.83 c0.14-0.43,0.15-0.74-0.26-1.06L37.37,112.93z M36.68,113.85l-0.98,2.83l-1.51-1.17L36.68,113.85z"></path> <path class="st1" d="M46.62,126.5l-3.17-1.5l2.8-5.96c0.13-0.28,0.05-0.5-0.23-0.63l-0.09-0.05c-0.09-0.04-0.16-0.06-0.24-0.06 c-0.12,0-0.28,0.05-0.39,0.29l-3.01,6.38c-0.13,0.28-0.05,0.5,0.23,0.63l3.7,1.74c0.08,0.04,0.16,0.06,0.23,0.06 c0.17,0,0.3-0.1,0.39-0.29c0.07-0.14,0.08-0.26,0.04-0.37C46.83,126.65,46.75,126.57,46.62,126.5z"></path> <path class="st1" d="M61.43,123.54l-0.1-0.02c-0.05-0.01-0.1-0.02-0.14-0.02c-0.15,0-0.35,0.07-0.42,0.39l-0.95,4.34 c-0.34,1.53-1.11,2.04-2.53,1.73c-0.79-0.17-1.28-0.49-1.52-0.99c-0.19-0.41-0.21-0.94-0.06-1.64l0.95-4.34 c0.03-0.16,0.02-0.28-0.04-0.38c-0.06-0.1-0.17-0.16-0.31-0.19l-0.1-0.02c-0.05-0.01-0.1-0.02-0.14-0.02 c-0.15,0-0.35,0.07-0.42,0.39L54.7,127c-0.46,2.1,0.37,3.44,2.38,3.88c0.34,0.08,0.67,0.11,0.97,0.11c1.48,0,2.43-0.89,2.81-2.64 l0.93-4.24C61.86,123.81,61.73,123.61,61.43,123.54z"></path> <path class="st1" d="M71.71,124.2l-2.65,0.06c-0.15,0-0.27,0.05-0.35,0.13c-0.08,0.08-0.12,0.2-0.12,0.35l0.16,7.05 c0.01,0.3,0.17,0.46,0.46,0.46l2.59-0.06c0.96-0.02,1.83-0.4,2.44-1.08c0.67-0.73,1-1.77,0.98-3 C75.16,125.42,73.41,124.2,71.71,124.2z M74.21,128.15c0.02,0.92-0.2,1.7-0.64,2.25c-0.43,0.54-1.05,0.84-1.79,0.85l-1.99,0.05 l-0.14-6.09l1.99-0.05h0.06C73.21,125.17,74.16,126.31,74.21,128.15z M69.22,132.08L69.22,132.08L69.22,132.08L69.22,132.08z"></path> <path class="st1" d="M85.26,122.87c-0.2-0.29-0.46-0.58-1-0.44l-0.05,0.01c-0.5,0.13-0.63,0.43-0.66,0.88l-0.54,7.19 c-0.01,0.05-0.02,0.22,0.08,0.33c0.04,0.04,0.11,0.1,0.24,0.1c0.05,0,0.1-0.01,0.16-0.02l0.13-0.03 c0.28-0.08,0.42-0.24,0.45-0.53l0.18-2.79l2.48-0.65l1.54,2.34c0.16,0.23,0.36,0.31,0.64,0.24l0.14-0.04 c0.06-0.02,0.24-0.06,0.3-0.22c0.06-0.16-0.04-0.31-0.08-0.36L85.26,122.87z M86.18,126.06l-1.85,0.49l0.2-2.99L86.18,126.06z"></path> <path class="st1" d="M98.34,120.78c0.24-0.49,0.21-1.13-0.09-1.7c-0.63-1.22-1.86-1.47-3.35-0.7l-1.13,0.59l-0.14,0.09l0.01,0.01 c-0.18,0.14-0.21,0.34-0.09,0.57l3.24,6.25c0.12,0.23,0.28,0.27,0.39,0.27c0.08,0,0.16-0.02,0.25-0.07l1.34-0.69 c1.67-0.86,2.21-2.16,1.48-3.56C99.84,121.07,99.15,120.68,98.34,120.78z M98.32,124.55l-0.82,0.43l-1.26-2.42l0.96-0.5 c1.09-0.57,1.75-0.5,2.15,0.26C99.8,123.2,99.47,123.93,98.32,124.55z M96.56,121.32l-0.75,0.39l-1.11-2.14l0.65-0.34 c0.98-0.51,1.61-0.42,2,0.32C97.69,120.21,97.67,120.74,96.56,121.32z"></path> <path class="st1" d="M110.99,115.94l-2.71,2.22l-4.17-5.09c-0.19-0.24-0.43-0.26-0.67-0.07l-0.08,0.07 c-0.23,0.19-0.26,0.43-0.07,0.67l4.47,5.46c0.11,0.13,0.23,0.2,0.36,0.2c0.1,0,0.21-0.04,0.31-0.13l3.16-2.59 c0.23-0.19,0.25-0.42,0.06-0.66C111.46,115.78,111.22,115.76,110.99,115.94z"></path> <path class="st1" d="M119.95,106.88c-0.1-0.08-0.21-0.13-0.31-0.13c-0.09,0-0.22,0.03-0.35,0.19l-2.03,2.51l-2.11-1.71l1.72-2.13 c0.18-0.23,0.15-0.48-0.09-0.67c-0.1-0.08-0.21-0.12-0.31-0.12c-0.09,0-0.22,0.03-0.35,0.19l-1.72,2.12l-1.88-1.52l2.03-2.51 c0.18-0.23,0.16-0.47-0.08-0.66c-0.11-0.08-0.22-0.13-0.32-0.13c-0.09,0-0.22,0.03-0.35,0.19l-2.39,2.96 c-0.1,0.12-0.14,0.24-0.13,0.35c0.01,0.12,0.08,0.22,0.2,0.32l5.49,4.43c0.11,0.08,0.21,0.13,0.31,0.13 c0.13,0,0.25-0.07,0.36-0.2l2.39-2.96C120.22,107.31,120.19,107.07,119.95,106.88z"></path> <path class="st1" d="M26.23,39.17c0.13,0,0.25-0.07,0.36-0.2l0.06-0.08c0.1-0.12,0.14-0.24,0.13-0.35 c-0.01-0.12-0.08-0.22-0.2-0.32l-4.73-3.84l6.07,2.3c0.27,0.1,0.49,0.03,0.66-0.18l0.27-0.34c0.18-0.22,0.19-0.44,0.04-0.69 l-3.5-5.46l4.73,3.84c0.24,0.19,0.48,0.17,0.67-0.07l0.06-0.08c0.19-0.24,0.17-0.48-0.07-0.67l-5.47-4.44 c-0.25-0.2-0.49-0.17-0.68,0.06l-0.29,0.36c-0.31,0.38-0.35,0.76-0.11,1.2l3.42,5.25l-5.86-2.28c-0.48-0.14-0.83-0.02-1.14,0.36 l-0.3,0.36c-0.19,0.24-0.17,0.48,0.08,0.68l5.47,4.44C26.03,39.12,26.13,39.17,26.23,39.17z"></path> <path class="st1" d="M42.61,23.6c-0.13-0.19-0.27-0.23-0.38-0.23c-0.09,0-0.18,0.03-0.27,0.09l-2.69,1.78l-1.5-2.26l2.28-1.51 c0.24-0.16,0.28-0.41,0.12-0.66c-0.13-0.19-0.27-0.23-0.38-0.23c-0.09,0-0.18,0.03-0.27,0.09l-2.28,1.51l-1.33-2.01l2.69-1.78 c0.25-0.16,0.29-0.4,0.12-0.65c-0.17-0.25-0.41-0.31-0.65-0.15l-3.17,2.1c-0.25,0.17-0.3,0.4-0.13,0.66l3.89,5.88 c0.1,0.15,0.23,0.23,0.37,0.23c0.09,0,0.19-0.03,0.28-0.1l3.17-2.1C42.73,24.09,42.78,23.85,42.61,23.6z"></path> <path class="st1" d="M51.87,15.94l0.65-0.2l3.16,2.37c0.32,0.22,0.65,0.29,0.95,0.19c0.16-0.05,0.31-0.14,0.44-0.27l0.16-0.15 l-3.55-2.52c0.49-0.21,0.89-0.54,1.16-0.93c0.35-0.53,0.44-1.14,0.24-1.77c-0.44-1.39-1.58-1.88-3.19-1.37l-1.82,0.57l-0.17,0.07 l0.01,0.02c-0.07,0.04-0.12,0.1-0.16,0.16c-0.06,0.1-0.06,0.23-0.01,0.37l2.12,6.71c0.09,0.28,0.27,0.34,0.41,0.34 c0.06,0,0.12-0.01,0.18-0.03l0.07-0.02c0.29-0.09,0.4-0.31,0.31-0.6L51.87,15.94z M53.89,13.98c-0.23,0.27-0.62,0.51-1.08,0.65 l-1.22,0.39l-0.75-2.39l1.33-0.42c1.02-0.32,1.67-0.08,1.93,0.76C54.21,13.34,54.14,13.68,53.89,13.98z"></path> <path class="st1" d="M70.14,16.55c1.67-0.03,2.96-0.86,2.94-1.9c0-0.29-0.24-0.56-0.56-0.63l-0.2-0.05l-0.02,0.2 c-0.07,0.85-0.93,1.41-2.18,1.43l-0.05,0c-1.3,0-2.63-0.97-2.67-3.13c-0.02-0.99,0.25-1.8,0.76-2.36 c0.46-0.5,1.12-0.78,1.85-0.79h0.07c1.16,0,1.92,0.5,1.99,1.31l0.02,0.2l0.19-0.04c0.38-0.08,0.6-0.35,0.59-0.75 c-0.02-0.98-1.19-1.68-2.79-1.68h-0.09c-1.06,0.02-1.96,0.38-2.61,1.04c-0.7,0.72-1.06,1.79-1.04,3.09 c0.04,2.47,1.5,4.07,3.71,4.07L70.14,16.55z"></path> <path class="st1" d="M83.61,17.62l1.59-2.29l2.46,0.72l0.11,2.8c0.02,0.28,0.15,0.45,0.42,0.53l0.14,0.04 c0.06,0.02,0.12,0.03,0.17,0.03c0.12,0,0.19-0.05,0.23-0.09c0.09-0.1,0.1-0.23,0.09-0.32l-0.35-7.2 c-0.02-0.46-0.13-0.75-0.63-0.89l-0.04-0.01c-0.5-0.15-0.76,0.05-1.02,0.41l-4.17,5.87c-0.04,0.05-0.14,0.2-0.09,0.36 c0.06,0.16,0.24,0.21,0.29,0.23l0.13,0.04C83.24,17.93,83.44,17.86,83.61,17.62z M85.78,14.5l1.72-2.46l0.12,2.99L85.78,14.5z"></path> <path class="st1" d="M105.32,24.05c1.53-2.3,0.76-4.31-0.7-5.28l-2.14-1.43c-0.26-0.17-0.49-0.12-0.66,0.13l-3.92,5.87 c-0.17,0.25-0.12,0.49,0.13,0.66l2.14,1.43c0.59,0.39,1.25,0.6,1.91,0.6C103.32,26.03,104.47,25.33,105.32,24.05z M104.47,23.48 c-0.68,1.02-1.55,1.58-2.45,1.58c-0.45,0-0.9-0.14-1.31-0.42l-1.66-1.11l3.38-5.07l1.66,1.1 C105.35,20.41,105.5,21.95,104.47,23.48z"></path> <path class="st1" d="M115.15,38.17c0.91,0,1.83-0.36,2.72-1.07c2.37-1.89,1.98-4.1,0.92-5.43c-0.71-0.89-1.71-1.4-2.76-1.4 c-0.91,0-1.83,0.37-2.74,1.09c-2.21,1.76-2.05,3.99-0.92,5.42C113.09,37.66,114.1,38.17,115.15,38.17z M112.58,34.3 c0.1-0.78,0.56-1.52,1.35-2.15c0.72-0.57,1.44-0.86,2.15-0.86c0.76,0,1.48,0.35,1.97,0.97c0.76,0.96,1,2.59-0.82,4.04 c-0.7,0.55-1.44,0.85-2.14,0.85c-0.77,0-1.48-0.35-1.97-0.96C112.69,35.64,112.5,34.97,112.58,34.3z"></path> </g> <path class="st2" d="M75.13,103.61c0.96,0,1.79-0.43,1.79-1.73c0-1.34-0.83-1.82-1.79-1.82c-0.95,0-1.79,0.48-1.79,1.82 C73.34,103.18,74.18,103.61,75.13,103.61z M87.61,104.19c0,0.65,0.43,1.33,1.34,1.33c1.27,0,2.17-1.15,2.17-2.27v-0.79 C88.53,102.34,87.61,103.15,87.61,104.19z M70.44,20.27c-15.78,0-29.85,7.34-38.99,18.79c0.26,5.96,9.06,43.5,9.64,43 c3.13-2.66,15.85-33.28,14.46-46.92c-1.56-5.07,5.34-1,7.21,0c0,0,0.1,0.35,0.21,0.92c0.1,0.55,0.21,1.34,0.21,2.24 c0,2.2-0.39,4.59-0.55,6.84c-0.03,0.33-0.08,0.67-0.13,1c-0.55,4.03-1.68,7.96-2.84,11.85c-1.53,5.11-3.24,10.17-5.53,14.99 c-2.19,4.6-4.73,9.39-8.28,13.09c-2.81,2.93-6.98,6.5-11.1,5.81c-2.77-0.46-6.92-23.9-10.02-41.69 c-2.67,6.11-4.16,12.86-4.16,19.96c0,27.55,22.33,49.88,49.88,49.88c21.05,0,39.03-13.04,46.36-31.48 c-1.66,1.03-3.94,1.93-5.42,0.94c-1.88-1.26-2.73-2.12-3.08-2.62c-0.19,0.69-1.21,1.93-4.96,3.51c-3.08,1.3-10.58,0.42-12.48-3.7 c0,0-1.59,2.32-4.63,3.77c-3.02,1.44-6.46,0.82-7.81-0.24c-1.35-1.07-2.88-3.53-2.88-3.53c0.59-2.22-13.39,16.9-15.96-6.76 c-0.32-3.03,1.24-15.19,4.24-15.82c3.06-0.64,3.22-0.42,3.22-0.42s1.79-0.22,1.64,1.32c-0.16,1.54-0.22,5.52-0.22,5.52l-0.84,7.16 c-0.28,2.4-0.66,7.31,3.96,5.6c4.49-1.65,3.46-14.3,4.22-19.85c0,0-1.7,0.08-2.34,0.09c-0.69,0.01-1.4-0.09-1.34-0.58l0.59-4.62 c0.08-0.68,3.63-0.27,3.63-0.27c0.32-1.5,0.73-4,0.95-5.52c0.32-2.12,0.8-4.62,0.8-4.62l1.43-5.73l0.74-2.76l1.79-1.49l6.97-3.44 v1.49c-1.89,6.7-4.03,13.29-4.43,20.32c-0.06,0.9-0.22,1.75-0.22,1.75s2.11-0.21,4.33-0.48c2.23-0.27,4.02-0.32,4.02-0.32 c0.17,1.41-0.19,3.75-0.37,5.25c-0.04,0.48-0.16,0.58-0.16,0.58l-9.19,0.49l-0.62,4.77l-0.37,3.61l-0.12,1.38l-0.1,2.71l0.06,3.13 c0,0,0.16,5.77,1.05,6.89c0.47,0.58,0.99,1.8,2.8,0.33c0.84-0.7,3.27-2.71,3.27-2.71l1.43-1.53c1.35-7.49,2.83-10.02,10.39-14.39 c0,0,3.67-1.68,5.98-1.92c4.11-0.43,4.72,0.01,8.15,1.6c0.46,0.36-0.57,0.88-0.57,0.88l-4.79,1.45 c-12.48-4.43-13.68,12.37-12.05,14.83c1.82,2.75,3.31,2.01,5.75,0.09c2.25-1.78,3.35-7.77,3.35-10.59c0-1.52,0-1.93,0-1.93 l6.83-1.15c0.23-0.05,0.22,0.47,0.28,0.83c0,0-1.52,2.48-1.67,4.16c-0.16,1.68,0.31,3.93,0.31,3.93l0.49,3.53 c1.7,3.11,4.04,1.11,5.94-0.89c1.02-3.97,1.56-8.14,1.56-12.43C120.32,42.61,97.99,20.27,70.44,20.27z M95.19,96.79 c0-0.23,0.11-0.34,0.35-0.34h0.08c0.24,0,0.35,0.11,0.35,0.34v8.92c0,0.24-0.11,0.35-0.35,0.35h-0.08c-0.24,0-0.35-0.11-0.35-0.35 V96.79z M89.4,100c-1.06,0-1.6,0.52-1.6,1.1c-0.2,0-0.54-0.07-0.54-0.41c0-0.72,0.85-1.36,2.14-1.36c1.41,0,2.51,0.7,2.51,2.2 v3.76c0,0.24,0.11,0.34,0.31,0.34c0.07,0,0.16,0,0.24-0.03c0,0.32-0.22,0.58-0.62,0.58c-0.54,0-0.73-0.42-0.73-0.84v-0.52 c-0.38,0.53-0.9,1.36-2.24,1.36c-1.38,0-2.05-0.94-2.05-2c0-1.23,1.02-2.43,4.3-2.3v-0.37C91.12,100.63,90.51,100,89.4,100z M80.96,99.8c0-0.23,0.11-0.34,0.35-0.34h0.08c0.24,0,0.35,0.11,0.35,0.34v1.07c0.37-1.14,1.13-1.53,1.87-1.53 c0.57,0,1.03,0.24,1.03,0.64c0,0.35-0.27,0.48-0.51,0.48c0-0.26-0.23-0.45-0.64-0.45c-0.98,0-1.72,1.23-1.75,3.17v2.54 c0,0.24-0.11,0.35-0.35,0.35h-0.08c-0.24,0-0.35-0.11-0.35-0.35V99.8z M72.88,107.08c-0.11,0.65,0.8,1.36,2.04,1.36h0.6 c1.19-0.04,1.86-0.69,1.86-1.37c0-0.84-0.73-1.07-1.67-1.1h-1.14c-1.22,0-1.71-0.41-1.71-1.09c0-0.31,0.22-0.76,0.72-0.99 c-0.6-0.39-1.02-0.99-1.02-2.02c0-1.82,1.27-2.54,2.57-2.54h1.94c0.38,0,0.6-0.26,0.6-0.62c0.24,0,0.53,0.26,0.53,0.64 c0,0.46-0.37,0.62-0.84,0.62c-0.26,0-0.48-0.06-0.62-0.1c0.58,0.45,0.99,1.15,0.99,2c0,1.76-1.25,2.41-2.52,2.44h-0.83 c-0.42,0-0.72,0.16-0.72,0.49c0,0.31,0.33,0.46,0.91,0.46h1.14c1.48,0,2.47,0.66,2.47,1.8c0,1.21-1.11,2.03-2.71,2.06h-0.54 c-1.63,0-2.7-0.68-2.7-1.45C72.22,107.3,72.57,107.08,72.88,107.08z M67.4,99.34c1.66,0,2.56,0.95,2.56,2.14 c0,1.32-1.25,1.87-2.92,1.87c-0.95,0-1.51-0.16-1.89-0.28c0,1.44,1.04,2.47,2.36,2.47c0.88,0,1.72-0.34,1.72-1.21 c0.3,0,0.54,0.27,0.54,0.53c0,0.76-0.84,1.33-2.33,1.33c-1.67,0-3.09-1.03-3.09-3.42C64.36,100.41,65.9,99.34,67.4,99.34z M45.91,105.71c0,0.24-0.11,0.35-0.35,0.35h-0.08c-0.24,0-0.35-0.11-0.35-0.35v-5.9c0-0.23,0.11-0.34,0.35-0.34h0.08 c0.24,0,0.35,0.11,0.35,0.34V105.71z M45.51,98.19c-0.34,0-0.61-0.27-0.61-0.6c0-0.34,0.27-0.61,0.61-0.61 c0.32,0,0.6,0.27,0.6,0.61C46.11,97.92,45.84,98.19,45.51,98.19z M54.72,105.71c0,0.24-0.11,0.35-0.37,0.35h-0.08 c-0.24,0-0.35-0.11-0.35-0.35v-3.64c0-1.57-0.69-2.07-1.8-2.07c-1.22,0-2.07,1.26-2.07,3.17v2.54c0,0.24-0.11,0.35-0.35,0.35 h-0.08c-0.24,0-0.35-0.11-0.35-0.35v-5.9c0-0.24,0.11-0.35,0.35-0.35h0.08c0.24,0,0.35,0.11,0.35,0.35v1.06 c0.26-0.76,1.06-1.53,2.18-1.53c1.45,0,2.49,0.66,2.49,2.74V105.71z M61.35,99.72c0.25,0,0.35,0.11,0.35,0.35 c-0.01,0.23-0.12,0.34-0.35,0.34l-2.25-0.03v3.67c0,1.03,0.53,1.47,1.36,1.47c0.77,0,1-0.39,1-0.94c0.37,0,0.53,0.3,0.53,0.64 c0,0.46-0.53,0.96-1.65,0.96c-1.28,0-2.04-0.65-2.04-2.13v-3.69l-0.77-0.01c-0.24,0-0.35-0.05-0.35-0.28c0-0.24,0.11-0.3,0.35-0.3 l0.77-0.01v-1.7c0-0.24,0.11-0.35,0.35-0.35h0.1c0.24,0,0.35,0.11,0.35,0.35v1.68L61.35,99.72z M68.73,59.19l-4.01,0.97 c-0.79,0.2-0.84,0.04-0.84,0.04s-0.32,0.16-0.18-0.85c0.13-1.01,0.54-2.7,0.54-2.7c0.44-1.16,0.22-1.21,0.73-2.53 c0.14-0.36,0.78-2.26,0.78-2.26c1.11-0.14,6.22-2.76,6.11-0.63C71.32,53.01,70.38,58.78,68.73,59.19z M69.18,101.48 c0-0.81-0.65-1.48-1.78-1.48c-1.29,0-2.25,1.25-2.25,2.51c0.3,0.08,0.98,0.26,1.8,0.26C68.26,102.77,69.18,102.43,69.18,101.48z"></path> </g> </g> </svg> 